<svg width="24" height="24" viewBox="0 0 24 24" fill="none" xmlns="http://www.w3.org/2000/svg">
<path fill-rule="evenodd" clip-rule="evenodd" d="M18.6997 11.9997C18.6997 12.3863 18.3863 12.6997 17.9997 12.6997L5.99971 12.6997C5.61311 12.6997 5.29971 12.3863 5.29971 11.9997C5.29971 11.6131 5.61311 11.2997 5.99971 11.2997L17.9997 11.2997C18.3863 11.2997 18.6997 11.6131 18.6997 11.9997Z" fill="#222628"/>
<path fill-rule="evenodd" clip-rule="evenodd" d="M11.9997 5.2998C12.3863 5.2998 12.6997 5.61321 12.6997 5.9998V17.9998C12.6997 18.3864 12.3863 18.6998 11.9997 18.6998C11.6131 18.6998 11.2997 18.3864 11.2997 17.9998V5.9998C11.2997 5.61321 11.6131 5.2998 11.9997 5.2998Z" fill="#222628"/>
</svg>
