<svg width="24" height="24" viewBox="0 0 24 24" fill="none" xmlns="http://www.w3.org/2000/svg">
<path fill-rule="evenodd" clip-rule="evenodd" d="M3.40099 12.693L2.84462 16.5876C2.51703 18.8807 2.35325 20.0273 2.91156 20.6519C3.08395 20.8448 3.3054 21.0041 3.54308 21.1062C4.31285 21.437 5.33382 20.9242 7.37575 19.8986C8.62496 19.2711 9.90765 18.6068 11 18C12.54 17.1444 14.7463 15.8867 16.7394 14.7435C18.6006 13.6759 19.5313 13.1421 19.6989 12.356C19.7511 12.1115 19.7511 11.8502 19.699 11.6056C19.5316 10.8196 18.6067 10.2887 16.7569 9.22687C15.0686 8.25782 13.0697 7.1289 11 5.99998C9.59291 5.23247 8.31672 4.56315 7.19656 3.992C5.27687 3.01319 4.31703 2.52379 3.54361 2.85276C3.3089 2.9526 3.07942 3.11662 2.90899 3.30639C2.34739 3.93168 2.50336 5.02353 2.81532 7.20724L3.40099 11.3069C3.43334 11.3023 3.46639 11.3 3.5 11.3H10C10.3866 11.3 10.7 11.6134 10.7 12C10.7 12.3866 10.3866 12.7 10 12.7H3.5C3.46639 12.7 3.43333 12.6976 3.40099 12.693Z" fill="#58585B"/>
</svg>
