<svg width="24" height="24" viewBox="0 0 24 24" fill="none" xmlns="http://www.w3.org/2000/svg">
<path d="M5.77215 17.1899C5.80842 16.6821 5.82656 16.4281 5.86618 16.2491C6.11711 15.1151 6.97957 14.3733 8.13837 14.2949C8.32135 14.2825 8.60682 14.3051 9.17774 14.3502C10.0233 14.4171 10.9433 14.4667 11.8122 14.4667C12.7806 14.4667 13.8621 14.4051 14.8467 14.3266C15.4049 14.2822 15.684 14.2599 15.8752 14.2741C17.0091 14.3577 17.8755 15.1025 18.1286 16.2109C18.1713 16.3979 18.1895 16.6529 18.2259 17.1629C18.267 17.7377 18.2875 18.0251 18.2665 18.2635C18.1458 19.6323 17.1105 20.7441 15.7538 20.962C15.5175 21 15.2293 21 14.6531 21H11.8122H9.31985C8.76857 21 8.49293 21 8.26658 20.9653C6.89315 20.7543 5.8443 19.6279 5.73178 18.2429C5.71323 18.0147 5.73287 17.7397 5.77215 17.1899Z" fill="black"/>
<path d="M8.5 7.5C8.5 5.567 10.067 4 12 4C13.933 4 15.5 5.567 15.5 7.5V8C15.5 9.65685 14.1569 11 12.5 11H11.5C9.84315 11 8.5 9.65685 8.5 8V7.5Z" fill="black"/>
<path fill-rule="evenodd" clip-rule="evenodd" d="M3.86397 14.4789C3.74172 14.1121 3.3453 13.9139 2.97854 14.0362L3.1999 14.7003C2.97854 14.0362 2.97814 14.0363 2.97774 14.0364L2.97691 14.0367L2.97513 14.0373L2.97115 14.0387L2.96151 14.042C2.95433 14.0446 2.94569 14.0477 2.93567 14.0515C2.91564 14.0591 2.89005 14.0692 2.8597 14.0822C2.7991 14.1082 2.71885 14.1459 2.62557 14.1977C2.43975 14.301 2.19697 14.4632 1.95492 14.7053C1.45748 15.2027 0.999896 16.0025 0.999896 17.2003C0.999896 18.398 1.45748 19.1978 1.95492 19.6952C2.19697 19.9373 2.43975 20.0996 2.62557 20.2028C2.71885 20.2546 2.7991 20.2923 2.8597 20.3183C2.89005 20.3313 2.91564 20.3414 2.93567 20.349C2.94569 20.3528 2.95433 20.3559 2.96151 20.3585L2.97115 20.3618L2.97513 20.3632L2.97691 20.3638L2.97774 20.3641C2.97814 20.3642 2.97854 20.3643 3.1999 19.7003L2.97854 20.3643C3.3453 20.4866 3.74172 20.2884 3.86397 19.9216C3.98526 19.5577 3.79112 19.1647 3.42991 19.0391C3.42746 19.0382 3.42104 19.0357 3.41119 19.0315C3.38975 19.0223 3.35282 19.0053 3.30547 18.979C3.21005 18.926 3.07782 18.8382 2.94487 18.7053C2.69231 18.4527 2.3999 18.0025 2.3999 17.2003C2.3999 16.398 2.69231 15.9478 2.94487 15.6952C3.07782 15.5623 3.21005 15.4746 3.30547 15.4215C3.35282 15.3952 3.38975 15.3782 3.41119 15.369C3.42104 15.3648 3.42745 15.3623 3.42991 15.3614C3.79112 15.2358 3.98526 14.8428 3.86397 14.4789Z" fill="black"/>
<path fill-rule="evenodd" clip-rule="evenodd" d="M20.0361 14.4789C20.1583 14.1121 20.5547 13.9139 20.9215 14.0362L20.7001 14.7003C20.9215 14.0362 20.9219 14.0363 20.9223 14.0364L20.9231 14.0367L20.9249 14.0373L20.9289 14.0387L20.9385 14.042C20.9457 14.0446 20.9543 14.0477 20.9644 14.0515C20.9844 14.0591 21.01 14.0692 21.0403 14.0822C21.1009 14.1082 21.1812 14.1459 21.2745 14.1977C21.4603 14.301 21.7031 14.4632 21.9451 14.7053C22.4425 15.2027 22.9001 16.0025 22.9001 17.2003C22.9001 18.398 22.4425 19.1978 21.9451 19.6952C21.7031 19.9373 21.4603 20.0996 21.2745 20.2028C21.1812 20.2546 21.1009 20.2923 21.0403 20.3183C21.01 20.3313 20.9844 20.3414 20.9644 20.349C20.9543 20.3528 20.9457 20.3559 20.9385 20.3585L20.9289 20.3618L20.9249 20.3632L20.9231 20.3638L20.9223 20.3641C20.9219 20.3642 20.9215 20.3643 20.7001 19.7003L20.9215 20.3643C20.5547 20.4866 20.1583 20.2884 20.0361 19.9216C19.9148 19.5577 20.1089 19.1647 20.4701 19.0391C20.4726 19.0382 20.479 19.0357 20.4888 19.0315C20.5103 19.0223 20.5472 19.0053 20.5946 18.979C20.69 18.926 20.8222 18.8382 20.9552 18.7053C21.2077 18.4527 21.5001 18.0025 21.5001 17.2003C21.5001 16.398 21.2077 15.9478 20.9552 15.6952C20.8222 15.5623 20.69 15.4746 20.5946 15.4215C20.5472 15.3952 20.5103 15.3782 20.4888 15.369C20.479 15.3648 20.4726 15.3623 20.4701 15.3614C20.1089 15.2358 19.9148 14.8428 20.0361 14.4789Z" fill="black"/>
<path fill-rule="evenodd" clip-rule="evenodd" d="M17.016 4.57415C17.0495 4.189 17.3888 3.90391 17.774 3.93738L17.7134 4.63476C17.774 3.93738 17.7743 3.93741 17.7747 3.93745L17.7754 3.93751L17.7771 3.93766L17.781 3.93802L17.791 3.93902L17.8199 3.94226C17.843 3.94504 17.8736 3.94913 17.9107 3.955C17.9848 3.96673 18.0859 3.98571 18.2059 4.01589C18.4438 4.07574 18.7673 4.18241 19.1043 4.37182C19.7974 4.76133 20.5344 5.49956 20.6882 6.80043C20.842 8.10131 20.2975 8.99106 19.7144 9.53146C19.4308 9.79425 19.1412 9.97342 18.9237 10.0871C18.8141 10.1444 18.7202 10.1865 18.6509 10.2152C18.6161 10.2295 18.5873 10.2406 18.5656 10.2487L18.5382 10.2586L18.5287 10.2619L18.525 10.2632L18.5234 10.2637L18.5227 10.264C18.5224 10.2641 18.522 10.2642 18.3004 9.60017L18.522 10.2642C18.1553 10.3865 17.7588 10.1885 17.6364 9.82174C17.5146 9.4566 17.7105 9.06194 18.0741 8.93776L18.0787 8.93609C18.0852 8.93368 18.0978 8.92888 18.1156 8.92153C18.1513 8.90676 18.2068 8.88211 18.275 8.84646C18.4132 8.77422 18.5926 8.66232 18.7628 8.5046C19.0872 8.20398 19.389 7.73497 19.2979 6.96482C19.2069 6.19467 18.804 5.80897 18.4184 5.59229C18.2162 5.47862 18.0156 5.41164 17.8644 5.37361C17.7898 5.35484 17.73 5.34383 17.6919 5.3378C17.6729 5.33479 17.6595 5.33306 17.6526 5.33223L17.6478 5.33168C17.2652 5.29573 16.9827 4.95764 17.016 4.57415Z" fill="black"/>
<path d="M6.11716 3.87419C6.50174 3.8347 6.68661 4.10102 6.65501 4.59996C6.6234 5.0989 6.19201 5.27054 6.19201 5.27054C6.15553 5.27705 6.098 5.28889 6.02629 5.30883C5.88086 5.34929 5.68906 5.41975 5.49814 5.53764C5.14045 5.75852 4.75265 6.15942 4.7006 6.98112C4.64856 7.80282 4.98268 8.24945 5.30965 8.51369C5.48417 8.65473 5.66554 8.74883 5.80471 8.80731C5.87333 8.83614 5.9289 8.85514 5.96427 8.8662C5.98187 8.8717 5.99419 8.87515 6.00032 8.87681L6.00399 8.87778C6.37745 8.96773 6.60902 9.34231 6.52173 9.71709C6.43403 10.0936 6.0577 10.3277 5.68118 10.24L5.63535 10.2284C5.61261 10.2223 5.58264 10.2137 5.5465 10.2024C5.47441 10.1799 5.37676 10.1461 5.26237 10.098C5.03553 10.0027 4.73174 9.84669 4.42966 9.60255C3.80341 9.09644 3.21855 8.23235 3.3034 6.89262C3.38826 5.55289 4.07747 4.76951 4.76257 4.34645C5.09305 4.14238 5.41409 4.02597 5.65114 3.96003C5.77068 3.92679 5.87182 3.90556 5.94618 3.8923L6.083 3.87212L6.11716 3.87419Z" fill="black"/>
</svg>
